<svg width="91" height="91" viewBox="0 0 91 91" fill="none" xmlns="http://www.w3.org/2000/svg">
    <rect width="91" height="91" rx="10" fill="white"/>
    <path d="M18 50.9868L46.0354 66.7653L71.2013 52.6841V58.2912L46.0354 72.4967L19.436 57.3753L18.0025 58.1568V60.1104L46.0354 75.8914L74.0708 60.1154V49.1626L72.7642 48.3786L46.0354 63.5051L21.0014 49.1626V43.5555L46.0354 57.6366L74.0708 41.8607V31.0347L72.7642 30.2533L46.0354 45.3797L22.3055 31.9506L46.0354 18.5216L65.7236 29.6038L67.4184 28.561V27.125L46.0354 15L18 30.9079V32.7346L46.0354 48.508L71.2013 34.4269V40.1608L46.0354 54.3764L19.436 39.2551L18.0025 40.0365L18 50.9868Z"
          fill="black"/>
</svg>
